<svg width="24" height="24" viewBox="0 0 512 512" fill="none" xmlns="http://www.w3.org/2000/svg">
<g clip-path="url(#clip0)">
<path d="M510.371 226.513C509.283 223.91 507.726 221.542 505.742 219.558L441.763 155.579C433.422 147.259 419.939 147.259 411.598 155.579C403.257 163.92 403.257 177.424 411.598 185.744L439.182 213.328H320.013C308.216 213.328 298.68 222.885 298.68 234.661C298.68 246.437 308.216 255.994 320.013 255.994H439.181L411.597 283.578C403.256 291.919 403.256 305.423 411.597 313.743C415.757 317.924 421.218 319.994 426.68 319.994C432.142 319.994 437.603 317.925 441.763 313.743L505.742 249.764C507.726 247.801 509.283 245.433 510.371 242.809C512.525 237.606 512.525 231.718 510.371 226.513Z" fill="#0BCAD4"/>
<path d="M362.68 298.667C350.883 298.667 341.347 308.224 341.347 320V426.667H256.014V85.333C256.014 75.925 249.827 67.605 240.803 64.896L166.712 42.667H341.347V149.334C341.347 161.11 350.883 170.667 362.68 170.667C374.477 170.667 384.013 161.11 384.013 149.334V21.334C384.013 9.557 374.477 0 362.68 0H21.347C20.579 0 19.896 0.32 19.15 0.405C18.147 0.512 17.23 0.682 16.27 0.917C14.03 1.493 12.003 2.368 10.105 3.562C9.63604 3.861 9.06004 3.882 8.61204 4.223C8.44004 4.352 8.37604 4.587 8.20504 4.715C5.88004 6.549 3.93904 8.789 2.53104 11.456C2.23204 12.032 2.16804 12.651 1.93404 13.248C1.25104 14.869 0.505038 16.448 0.249038 18.24C0.142038 18.88 0.334038 19.477 0.313038 20.096C0.292038 20.523 0.0140381 20.907 0.0140381 21.333V448C0.0140381 458.176 7.20304 466.923 17.166 468.907L230.499 511.574C231.886 511.873 233.294 512.001 234.68 512.001C239.565 512.001 244.365 510.316 248.205 507.158C253.133 503.105 256.013 497.067 256.013 490.667V469.334H362.68C374.477 469.334 384.013 459.777 384.013 448.001V320C384.013 308.224 374.477 298.667 362.68 298.667Z" fill="#0BCAD4"/>
</g>
<defs>
<clipPath id="clip0">
<rect width="512" height="512" fill="white"/>
</clipPath>
</defs>
</svg>
